<svg xmlns="http://www.w3.org/2000/svg" xmlns:xlink="http://www.w3.org/1999/xlink" width="500" zoomAndPan="magnify" viewBox="0 0 375 187.499995" height="250" preserveAspectRatio="xMidYMid meet" version="1.0"><defs><g/><clipPath id="id1"><path d="M 304.148438 31.898438 L 358 31.898438 L 358 82.761719 L 304.148438 82.761719 Z M 304.148438 31.898438 " clip-rule="nonzero"/></clipPath><clipPath id="id2"><path d="M 359 35 L 367.730469 35 L 367.730469 41 L 359 41 Z M 359 35 " clip-rule="nonzero"/></clipPath><clipPath id="id3"><path d="M 44.484375 155 L 57 155 L 57 168.410156 L 44.484375 168.410156 Z M 44.484375 155 " clip-rule="nonzero"/></clipPath><clipPath id="id4"><path d="M 49 143.050781 L 66.925781 143.050781 L 66.925781 164 L 49 164 Z M 49 143.050781 " clip-rule="nonzero"/></clipPath><clipPath id="id5"><path d="M 214.351562 42.648438 L 239.785156 42.648438 L 239.785156 51.625 L 214.351562 51.625 Z M 214.351562 42.648438 " clip-rule="nonzero"/></clipPath></defs><g fill="#000000" fill-opacity="1"><g transform="translate(50.64382, 90.43806)"><g><path d="M 36.671875 1.03125 C 32.078125 1.03125 27.929688 0.226562 24.234375 -1.375 C 20.535156 -2.988281 17.382812 -5.285156 14.78125 -8.265625 C 12.1875 -11.242188 10.1875 -14.851562 8.78125 -19.09375 C 7.375 -23.34375 6.671875 -28.070312 6.671875 -33.28125 C 6.671875 -38.6875 7.320312 -43.785156 8.625 -48.578125 C 9.925781 -53.378906 11.773438 -57.554688 14.171875 -61.109375 C 16.566406 -64.671875 19.457031 -67.476562 22.84375 -69.53125 C 26.238281 -71.59375 29.992188 -72.625 34.109375 -72.625 C 38.898438 -72.625 42.734375 -71.285156 45.609375 -68.609375 C 48.484375 -65.941406 49.921875 -62.453125 49.921875 -58.140625 C 49.921875 -56.285156 49.695312 -54.601562 49.25 -53.09375 C 48.8125 -51.59375 48.226562 -50.3125 47.5 -49.25 C 46.78125 -48.1875 45.976562 -47.363281 45.09375 -46.78125 C 44.207031 -46.207031 43.351562 -45.921875 42.53125 -45.921875 C 41.5 -45.921875 40.570312 -46.296875 39.75 -47.046875 C 38.925781 -47.796875 38.515625 -48.753906 38.515625 -49.921875 C 38.515625 -50.742188 38.6875 -51.410156 39.03125 -51.921875 C 39.375 -52.429688 39.734375 -52.960938 40.109375 -53.515625 C 40.484375 -54.066406 40.84375 -54.679688 41.1875 -55.359375 C 41.53125 -56.046875 41.703125 -56.972656 41.703125 -58.140625 C 41.703125 -59.921875 41.015625 -61.410156 39.640625 -62.609375 C 38.273438 -63.804688 36.429688 -64.40625 34.109375 -64.40625 C 31.640625 -64.40625 29.238281 -63.71875 26.90625 -62.34375 C 24.582031 -60.976562 22.53125 -58.976562 20.75 -56.34375 C 18.96875 -53.707031 17.546875 -50.453125 16.484375 -46.578125 C 15.421875 -42.710938 14.890625 -38.28125 14.890625 -33.28125 C 14.890625 -29.375 15.351562 -25.8125 16.28125 -22.59375 C 17.207031 -19.375 18.578125 -16.617188 20.390625 -14.328125 C 22.203125 -12.035156 24.457031 -10.269531 27.15625 -9.03125 C 29.863281 -7.800781 33.035156 -7.1875 36.671875 -7.1875 C 41.804688 -7.1875 46.1875 -8.640625 49.8125 -11.546875 C 53.445312 -14.460938 56.253906 -18.554688 58.234375 -23.828125 C 58.515625 -24.515625 59.015625 -25.078125 59.734375 -25.515625 C 60.453125 -25.960938 61.1875 -26.1875 61.9375 -26.1875 C 63.101562 -26.1875 64.0625 -25.773438 64.8125 -24.953125 C 65.570312 -24.140625 65.953125 -23.21875 65.953125 -22.1875 C 65.953125 -21.914062 65.953125 -21.675781 65.953125 -21.46875 C 65.953125 -21.257812 65.878906 -20.984375 65.734375 -20.640625 C 64.640625 -17.566406 63.21875 -14.707031 61.46875 -12.0625 C 59.726562 -9.425781 57.660156 -7.132812 55.265625 -5.1875 C 52.867188 -3.238281 50.109375 -1.710938 46.984375 -0.609375 C 43.867188 0.484375 40.429688 1.03125 36.671875 1.03125 Z M 36.671875 1.03125 "/></g></g></g><g fill="#000000" fill-opacity="1"><g transform="translate(101.183129, 90.43806)"><g><path d="M 39.34375 0.609375 C 35.4375 0.609375 32.472656 -0.550781 30.453125 -2.875 C 28.429688 -5.207031 27.421875 -8.390625 27.421875 -12.421875 C 27.421875 -14.679688 27.710938 -16.71875 28.296875 -18.53125 C 28.878906 -20.351562 29.507812 -22.082031 30.1875 -23.71875 C 30.875 -25.363281 31.507812 -27.007812 32.09375 -28.65625 C 32.675781 -30.300781 32.96875 -32.082031 32.96875 -34 C 32.96875 -35.164062 32.609375 -36.125 31.890625 -36.875 C 31.171875 -37.625 30.28125 -38.253906 29.21875 -38.765625 C 28.15625 -39.285156 26.988281 -39.695312 25.71875 -40 C 24.457031 -40.3125 23.316406 -40.640625 22.296875 -40.984375 C 21.742188 -38.316406 20.898438 -35.320312 19.765625 -32 C 18.640625 -28.675781 17.1875 -25.0625 15.40625 -21.15625 C 15.0625 -20.476562 14.546875 -19.847656 13.859375 -19.265625 C 13.179688 -18.679688 12.394531 -18.390625 11.5 -18.390625 C 10.34375 -18.390625 9.367188 -18.800781 8.578125 -19.625 C 7.785156 -20.445312 7.390625 -21.40625 7.390625 -22.5 C 7.390625 -22.632812 7.40625 -22.875 7.4375 -23.21875 C 7.476562 -23.5625 7.566406 -23.832031 7.703125 -24.03125 L 8.53125 -25.78125 C 9.144531 -27.15625 9.773438 -28.628906 10.421875 -30.203125 C 11.078125 -31.773438 11.675781 -33.363281 12.21875 -34.96875 C 12.769531 -36.582031 13.234375 -38.140625 13.609375 -39.640625 C 13.984375 -41.148438 14.273438 -42.523438 14.484375 -43.765625 C 13.523438 -44.515625 12.925781 -45.316406 12.6875 -46.171875 C 12.445312 -47.023438 12.328125 -47.929688 12.328125 -48.890625 C 12.328125 -50.128906 12.753906 -51.226562 13.609375 -52.1875 C 14.460938 -53.144531 15.710938 -53.625 17.359375 -53.625 C 18.316406 -53.625 19.359375 -53.296875 20.484375 -52.640625 C 21.617188 -51.992188 22.359375 -50.675781 22.703125 -48.6875 C 24.753906 -48.070312 26.859375 -47.472656 29.015625 -46.890625 C 31.171875 -46.304688 33.15625 -45.535156 34.96875 -44.578125 C 36.789062 -43.617188 38.28125 -42.316406 39.4375 -40.671875 C 40.601562 -39.035156 41.1875 -36.8125 41.1875 -34 C 41.1875 -32.144531 40.894531 -30.34375 40.3125 -28.59375 C 39.726562 -26.851562 39.09375 -25.128906 38.40625 -23.421875 C 37.726562 -21.710938 37.097656 -19.96875 36.515625 -18.1875 C 35.929688 -16.40625 35.640625 -14.554688 35.640625 -12.640625 C 35.640625 -11.335938 36.015625 -10.132812 36.765625 -9.03125 C 37.523438 -7.9375 38.691406 -7.390625 40.265625 -7.390625 C 41.703125 -7.390625 43.050781 -7.867188 44.3125 -8.828125 C 45.582031 -9.785156 46.75 -11.019531 47.8125 -12.53125 C 48.875 -14.039062 49.832031 -15.703125 50.6875 -17.515625 C 51.539062 -19.328125 52.28125 -21.085938 52.90625 -22.796875 C 53.238281 -23.753906 53.726562 -24.609375 54.375 -25.359375 C 55.03125 -26.117188 55.976562 -26.5 57.21875 -26.5 C 58.375 -26.5 59.347656 -26.101562 60.140625 -25.3125 C 60.929688 -24.53125 61.328125 -23.554688 61.328125 -22.390625 C 61.328125 -22.253906 61.304688 -22.03125 61.265625 -21.71875 C 61.234375 -21.414062 61.1875 -21.195312 61.125 -21.0625 L 60.5 -19.40625 C 59.613281 -17.082031 58.5 -14.738281 57.15625 -12.375 C 55.820312 -10.007812 54.28125 -7.867188 52.53125 -5.953125 C 50.789062 -4.035156 48.804688 -2.460938 46.578125 -1.234375 C 44.359375 -0.00390625 41.945312 0.609375 39.34375 0.609375 Z M 39.34375 0.609375 "/></g></g></g><g fill="#000000" fill-opacity="1"><g transform="translate(147.099941, 90.43806)"><g><path d="M 22.703125 0.515625 C 20.023438 0.515625 17.742188 -0.03125 15.859375 -1.125 C 13.984375 -2.21875 12.445312 -3.671875 11.25 -5.484375 C 10.050781 -7.304688 9.160156 -9.398438 8.578125 -11.765625 C 7.992188 -14.128906 7.703125 -16.578125 7.703125 -19.109375 C 7.703125 -22.804688 8.234375 -26.382812 9.296875 -29.84375 C 10.359375 -33.300781 11.878906 -36.363281 13.859375 -39.03125 C 15.847656 -41.707031 18.265625 -43.847656 21.109375 -45.453125 C 23.953125 -47.054688 27.117188 -47.859375 30.609375 -47.859375 C 32.460938 -47.859375 34.273438 -47.582031 36.046875 -47.03125 C 37.828125 -46.488281 39.4375 -45.671875 40.875 -44.578125 C 42.320312 -43.484375 43.488281 -42.148438 44.375 -40.578125 C 45.257812 -39.003906 45.703125 -37.1875 45.703125 -35.125 C 45.703125 -32.726562 45.5 -30.296875 45.09375 -27.828125 C 44.6875 -25.367188 44.484375 -22.597656 44.484375 -19.515625 C 44.484375 -11.503906 46.398438 -7.5 50.234375 -7.5 C 51.191406 -7.5 52.097656 -7.769531 52.953125 -8.3125 C 53.804688 -8.863281 54.660156 -9.789062 55.515625 -11.09375 C 56.367188 -12.394531 57.257812 -14.070312 58.1875 -16.125 C 59.113281 -18.175781 60.160156 -20.742188 61.328125 -23.828125 C 61.597656 -24.378906 62.054688 -24.875 62.703125 -25.3125 C 63.359375 -25.757812 64.097656 -25.984375 64.921875 -25.984375 C 66.085938 -25.984375 67.0625 -25.585938 67.84375 -24.796875 C 68.632812 -24.015625 69.03125 -23.039062 69.03125 -21.875 C 69.03125 -21.46875 68.960938 -21.054688 68.828125 -20.640625 C 66.222656 -13.796875 63.53125 -8.554688 60.75 -4.921875 C 57.976562 -1.296875 54.472656 0.515625 50.234375 0.515625 C 46.734375 0.515625 44.109375 -0.234375 42.359375 -1.734375 C 40.617188 -3.242188 39.164062 -5.4375 38 -8.3125 C 37.039062 -6.738281 36.046875 -5.40625 35.015625 -4.3125 C 33.992188 -3.21875 32.898438 -2.3125 31.734375 -1.59375 C 30.578125 -0.875 29.257812 -0.34375 27.78125 0 C 26.3125 0.34375 24.617188 0.515625 22.703125 0.515625 Z M 23.3125 -7.1875 C 25.226562 -7.1875 26.941406 -7.90625 28.453125 -9.34375 C 29.960938 -10.78125 31.242188 -12.578125 32.296875 -14.734375 C 33.359375 -16.890625 34.25 -19.203125 34.96875 -21.671875 C 35.6875 -24.140625 36.21875 -26.363281 36.5625 -28.34375 L 37.390625 -32.96875 C 37.460938 -33.445312 37.515625 -33.859375 37.546875 -34.203125 C 37.578125 -34.546875 37.59375 -34.785156 37.59375 -34.921875 C 37.59375 -35.054688 37.488281 -35.394531 37.28125 -35.9375 C 37.082031 -36.488281 36.707031 -37.070312 36.15625 -37.6875 C 35.601562 -38.3125 34.863281 -38.863281 33.9375 -39.34375 C 33.019531 -39.820312 31.84375 -40.0625 30.40625 -40.0625 C 28.351562 -40.0625 26.414062 -39.492188 24.59375 -38.359375 C 22.78125 -37.234375 21.222656 -35.726562 19.921875 -33.84375 C 18.617188 -31.957031 17.59375 -29.726562 16.84375 -27.15625 C 16.09375 -24.59375 15.71875 -21.875 15.71875 -19 C 15.71875 -15.570312 16.347656 -12.742188 17.609375 -10.515625 C 18.878906 -8.296875 20.78125 -7.1875 23.3125 -7.1875 Z M 23.3125 -7.1875 "/></g></g></g><g fill="#000000" fill-opacity="1"><g transform="translate(200.720914, 90.43806)"><g><path d="M 12.53125 31.84375 C 11.363281 31.84375 10.382812 31.445312 9.59375 30.65625 C 8.8125 29.875 8.421875 28.898438 8.421875 27.734375 L 8.421875 -39.03125 L 4 -39.03125 C 2.90625 -39.03125 1.960938 -39.421875 1.171875 -40.203125 C 0.390625 -40.992188 0 -41.972656 0 -43.140625 C 0 -44.234375 0.390625 -45.191406 1.171875 -46.015625 C 1.960938 -46.835938 2.90625 -47.25 4 -47.25 L 8.421875 -47.25 L 8.421875 -55.359375 C 8.421875 -58.234375 8.742188 -60.957031 9.390625 -63.53125 C 10.046875 -66.101562 11.039062 -68.378906 12.375 -70.359375 C 13.707031 -72.347656 15.398438 -73.921875 17.453125 -75.078125 C 19.515625 -76.242188 21.945312 -76.828125 24.75 -76.828125 C 26.601562 -76.828125 28.28125 -76.570312 29.78125 -76.0625 C 31.289062 -75.550781 32.59375 -74.898438 33.6875 -74.109375 C 34.78125 -73.328125 35.648438 -72.488281 36.296875 -71.59375 C 36.953125 -70.707031 37.28125 -69.851562 37.28125 -69.03125 C 37.28125 -67.789062 36.921875 -66.757812 36.203125 -65.9375 C 35.484375 -65.125 34.507812 -64.71875 33.28125 -64.71875 C 32.53125 -64.71875 31.894531 -64.921875 31.375 -65.328125 C 30.863281 -65.742188 30.316406 -66.191406 29.734375 -66.671875 C 29.148438 -67.148438 28.484375 -67.59375 27.734375 -68 C 26.984375 -68.40625 25.988281 -68.609375 24.75 -68.609375 C 22.289062 -68.609375 20.34375 -67.476562 18.90625 -65.21875 C 17.46875 -62.96875 16.75 -59.515625 16.75 -54.859375 L 16.75 -47.25 L 26.609375 -47.25 C 27.765625 -47.25 28.738281 -46.820312 29.53125 -45.96875 C 30.320312 -45.113281 30.71875 -44.171875 30.71875 -43.140625 C 30.71875 -41.972656 30.335938 -40.992188 29.578125 -40.203125 C 28.828125 -39.421875 27.835938 -39.03125 26.609375 -39.03125 L 16.640625 -39.03125 L 16.640625 27.734375 C 16.640625 28.898438 16.242188 29.875 15.453125 30.65625 C 14.671875 31.445312 13.695312 31.84375 12.53125 31.84375 Z M 12.53125 31.84375 "/></g></g></g><g fill="#000000" fill-opacity="1"><g transform="translate(228.764069, 90.43806)"><g><path d="M 24.140625 1.03125 C 21.609375 1.03125 19.347656 0.65625 17.359375 -0.09375 C 15.367188 -0.851562 13.707031 -2.15625 12.375 -4 C 11.039062 -5.851562 10.03125 -8.390625 9.34375 -11.609375 C 8.65625 -14.828125 8.3125 -18.898438 8.3125 -23.828125 L 8.3125 -39.03125 L 3.078125 -39.03125 C 1.910156 -39.03125 0.929688 -39.421875 0.140625 -40.203125 C -0.640625 -40.992188 -1.03125 -41.972656 -1.03125 -43.140625 C -1.03125 -44.304688 -0.640625 -45.28125 0.140625 -46.0625 C 0.929688 -46.851562 1.910156 -47.25 3.078125 -47.25 L 8.3125 -47.25 L 8.3125 -61.9375 C 8.3125 -63.101562 8.707031 -64.078125 9.5 -64.859375 C 10.289062 -65.648438 11.265625 -66.046875 12.421875 -66.046875 C 13.585938 -66.046875 14.5625 -65.648438 15.34375 -64.859375 C 16.132812 -64.078125 16.53125 -63.101562 16.53125 -61.9375 L 16.53125 -47.25 L 25.265625 -47.25 C 26.429688 -47.25 27.40625 -46.851562 28.1875 -46.0625 C 28.976562 -45.28125 29.375 -44.304688 29.375 -43.140625 C 29.375 -41.972656 28.976562 -40.992188 28.1875 -40.203125 C 27.40625 -39.421875 26.429688 -39.03125 25.265625 -39.03125 L 16.53125 -39.03125 L 16.53125 -23.828125 C 16.53125 -20.546875 16.703125 -17.820312 17.046875 -15.65625 C 17.390625 -13.5 17.867188 -11.785156 18.484375 -10.515625 C 19.097656 -9.253906 19.882812 -8.382812 20.84375 -7.90625 C 21.8125 -7.425781 22.910156 -7.1875 24.140625 -7.1875 C 25.171875 -7.1875 26.285156 -7.546875 27.484375 -8.265625 C 28.679688 -8.984375 29.878906 -10.023438 31.078125 -11.390625 C 32.273438 -12.765625 33.398438 -14.476562 34.453125 -16.53125 C 35.515625 -18.59375 36.457031 -20.921875 37.28125 -23.515625 C 37.625 -24.617188 38.171875 -25.425781 38.921875 -25.9375 C 39.679688 -26.445312 40.472656 -26.703125 41.296875 -26.703125 C 42.460938 -26.703125 43.4375 -26.304688 44.21875 -25.515625 C 45.007812 -24.734375 45.40625 -23.757812 45.40625 -22.59375 C 45.40625 -22.1875 45.351562 -21.8125 45.25 -21.46875 C 45.144531 -21.125 45.054688 -20.882812 44.984375 -20.75 C 42.585938 -14.039062 39.726562 -8.734375 36.40625 -4.828125 C 33.09375 -0.921875 29.003906 1.03125 24.140625 1.03125 Z M 24.140625 1.03125 "/></g></g></g><g fill="#000000" fill-opacity="1"><g transform="translate(258.758936, 90.43806)"><g><path d="M 31.53125 0.515625 C 27.695312 0.515625 24.304688 -0.0820312 21.359375 -1.28125 C 18.421875 -2.476562 15.941406 -4.117188 13.921875 -6.203125 C 11.898438 -8.296875 10.359375 -10.78125 9.296875 -13.65625 C 8.234375 -16.53125 7.703125 -19.648438 7.703125 -23.015625 C 7.703125 -26.367188 8.195312 -29.535156 9.1875 -32.515625 C 10.1875 -35.492188 11.625 -38.113281 13.5 -40.375 C 15.382812 -42.632812 17.679688 -44.429688 20.390625 -45.765625 C 23.097656 -47.097656 26.128906 -47.765625 29.484375 -47.765625 C 34.003906 -47.765625 37.410156 -46.632812 39.703125 -44.375 C 41.992188 -42.113281 43.140625 -39.441406 43.140625 -36.359375 C 43.140625 -30.472656 40.863281 -26.003906 36.3125 -22.953125 C 31.757812 -19.910156 25.238281 -18.25 16.75 -17.96875 C 17.289062 -14.476562 18.894531 -11.894531 21.5625 -10.21875 C 24.238281 -8.539062 27.53125 -7.703125 31.4375 -7.703125 C 36.976562 -7.703125 41.628906 -9.003906 45.390625 -11.609375 C 49.160156 -14.210938 52.144531 -18.421875 54.34375 -24.234375 C 54.539062 -24.859375 55 -25.410156 55.71875 -25.890625 C 56.4375 -26.367188 57.207031 -26.609375 58.03125 -26.609375 C 59.269531 -26.609375 60.25 -26.109375 60.96875 -25.109375 C 61.6875 -24.117188 62.046875 -23.144531 62.046875 -22.1875 C 62.046875 -21.84375 61.976562 -21.46875 61.84375 -21.0625 C 60.675781 -18.113281 59.253906 -15.335938 57.578125 -12.734375 C 55.898438 -10.128906 53.859375 -7.851562 51.453125 -5.90625 C 49.054688 -3.957031 46.210938 -2.398438 42.921875 -1.234375 C 39.640625 -0.0664062 35.84375 0.515625 31.53125 0.515625 Z M 16.234375 -25.890625 C 22.390625 -25.890625 27.039062 -26.863281 30.1875 -28.8125 C 33.34375 -30.757812 34.921875 -33.101562 34.921875 -35.84375 C 34.921875 -37.21875 34.492188 -38.398438 33.640625 -39.390625 C 32.785156 -40.378906 31.398438 -40.875 29.484375 -40.875 C 27.492188 -40.875 25.742188 -40.476562 24.234375 -39.6875 C 22.734375 -38.90625 21.453125 -37.828125 20.390625 -36.453125 C 19.328125 -35.085938 18.4375 -33.5 17.71875 -31.6875 C 17 -29.875 16.503906 -27.941406 16.234375 -25.890625 Z M 16.234375 -25.890625 "/></g></g></g><g fill="#000000" fill-opacity="1"><g transform="translate(6.798025, 167.510564)"><g><path d="M 24.140625 0.203125 C 22.972656 0.203125 21.992188 -0.171875 21.203125 -0.921875 C 20.421875 -1.671875 20.03125 -2.628906 20.03125 -3.796875 L 20.03125 -63.6875 L 4.625 -63.6875 C 3.457031 -63.6875 2.476562 -64.078125 1.6875 -64.859375 C 0.90625 -65.648438 0.515625 -66.628906 0.515625 -67.796875 C 0.515625 -68.890625 0.90625 -69.847656 1.6875 -70.671875 C 2.476562 -71.492188 3.457031 -71.90625 4.625 -71.90625 L 43.453125 -71.90625 C 44.617188 -71.90625 45.578125 -71.492188 46.328125 -70.671875 C 47.078125 -69.847656 47.453125 -68.890625 47.453125 -67.796875 C 47.453125 -66.628906 47.078125 -65.648438 46.328125 -64.859375 C 45.578125 -64.078125 44.617188 -63.6875 43.453125 -63.6875 L 28.046875 -63.6875 L 28.046875 -3.796875 C 28.046875 -2.628906 27.6875 -1.671875 26.96875 -0.921875 C 26.25 -0.171875 25.304688 0.203125 24.140625 0.203125 Z M 24.140625 0.203125 "/></g></g></g><g fill="#000000" fill-opacity="1"><g transform="translate(54.763783, 167.510564)"><g><path d="M 39.34375 0.609375 C 35.4375 0.609375 32.472656 -0.550781 30.453125 -2.875 C 28.429688 -5.207031 27.421875 -8.390625 27.421875 -12.421875 C 27.421875 -14.679688 27.710938 -16.71875 28.296875 -18.53125 C 28.878906 -20.351562 29.507812 -22.082031 30.1875 -23.71875 C 30.875 -25.363281 31.507812 -27.007812 32.09375 -28.65625 C 32.675781 -30.300781 32.96875 -32.082031 32.96875 -34 C 32.96875 -35.164062 32.609375 -36.125 31.890625 -36.875 C 31.171875 -37.625 30.28125 -38.253906 29.21875 -38.765625 C 28.15625 -39.285156 26.988281 -39.695312 25.71875 -40 C 24.457031 -40.3125 23.316406 -40.640625 22.296875 -40.984375 C 21.742188 -38.316406 20.898438 -35.320312 19.765625 -32 C 18.640625 -28.675781 17.1875 -25.0625 15.40625 -21.15625 C 15.0625 -20.476562 14.546875 -19.847656 13.859375 -19.265625 C 13.179688 -18.679688 12.394531 -18.390625 11.5 -18.390625 C 10.34375 -18.390625 9.367188 -18.800781 8.578125 -19.625 C 7.785156 -20.445312 7.390625 -21.40625 7.390625 -22.5 C 7.390625 -22.632812 7.40625 -22.875 7.4375 -23.21875 C 7.476562 -23.5625 7.566406 -23.832031 7.703125 -24.03125 L 8.53125 -25.78125 C 9.144531 -27.15625 9.773438 -28.628906 10.421875 -30.203125 C 11.078125 -31.773438 11.675781 -33.363281 12.21875 -34.96875 C 12.769531 -36.582031 13.234375 -38.140625 13.609375 -39.640625 C 13.984375 -41.148438 14.273438 -42.523438 14.484375 -43.765625 C 13.523438 -44.515625 12.925781 -45.316406 12.6875 -46.171875 C 12.445312 -47.023438 12.328125 -47.929688 12.328125 -48.890625 C 12.328125 -50.128906 12.753906 -51.226562 13.609375 -52.1875 C 14.460938 -53.144531 15.710938 -53.625 17.359375 -53.625 C 18.316406 -53.625 19.359375 -53.296875 20.484375 -52.640625 C 21.617188 -51.992188 22.359375 -50.675781 22.703125 -48.6875 C 24.753906 -48.070312 26.859375 -47.472656 29.015625 -46.890625 C 31.171875 -46.304688 33.15625 -45.535156 34.96875 -44.578125 C 36.789062 -43.617188 38.28125 -42.316406 39.4375 -40.671875 C 40.601562 -39.035156 41.1875 -36.8125 41.1875 -34 C 41.1875 -32.144531 40.894531 -30.34375 40.3125 -28.59375 C 39.726562 -26.851562 39.09375 -25.128906 38.40625 -23.421875 C 37.726562 -21.710938 37.097656 -19.96875 36.515625 -18.1875 C 35.929688 -16.40625 35.640625 -14.554688 35.640625 -12.640625 C 35.640625 -11.335938 36.015625 -10.132812 36.765625 -9.03125 C 37.523438 -7.9375 38.691406 -7.390625 40.265625 -7.390625 C 41.703125 -7.390625 43.050781 -7.867188 44.3125 -8.828125 C 45.582031 -9.785156 46.75 -11.019531 47.8125 -12.53125 C 48.875 -14.039062 49.832031 -15.703125 50.6875 -17.515625 C 51.539062 -19.328125 52.28125 -21.085938 52.90625 -22.796875 C 53.238281 -23.753906 53.726562 -24.609375 54.375 -25.359375 C 55.03125 -26.117188 55.976562 -26.5 57.21875 -26.5 C 58.375 -26.5 59.347656 -26.101562 60.140625 -25.3125 C 60.929688 -24.53125 61.328125 -23.554688 61.328125 -22.390625 C 61.328125 -22.253906 61.304688 -22.03125 61.265625 -21.71875 C 61.234375 -21.414062 61.1875 -21.195312 61.125 -21.0625 L 60.5 -19.40625 C 59.613281 -17.082031 58.5 -14.738281 57.15625 -12.375 C 55.820312 -10.007812 54.28125 -7.867188 52.53125 -5.953125 C 50.789062 -4.035156 48.804688 -2.460938 46.578125 -1.234375 C 44.359375 -0.00390625 41.945312 0.609375 39.34375 0.609375 Z M 39.34375 0.609375 "/></g></g></g><g fill="#000000" fill-opacity="1"><g transform="translate(100.675334, 167.510564)"><g><path d="M 22.703125 0.515625 C 20.023438 0.515625 17.742188 -0.03125 15.859375 -1.125 C 13.984375 -2.21875 12.445312 -3.671875 11.25 -5.484375 C 10.050781 -7.304688 9.160156 -9.398438 8.578125 -11.765625 C 7.992188 -14.128906 7.703125 -16.578125 7.703125 -19.109375 C 7.703125 -22.804688 8.234375 -26.382812 9.296875 -29.84375 C 10.359375 -33.300781 11.878906 -36.363281 13.859375 -39.03125 C 15.847656 -41.707031 18.265625 -43.847656 21.109375 -45.453125 C 23.953125 -47.054688 27.117188 -47.859375 30.609375 -47.859375 C 32.460938 -47.859375 34.273438 -47.582031 36.046875 -47.03125 C 37.828125 -46.488281 39.4375 -45.671875 40.875 -44.578125 C 42.320312 -43.484375 43.488281 -42.148438 44.375 -40.578125 C 45.257812 -39.003906 45.703125 -37.1875 45.703125 -35.125 C 45.703125 -32.726562 45.5 -30.296875 45.09375 -27.828125 C 44.6875 -25.367188 44.484375 -22.597656 44.484375 -19.515625 C 44.484375 -11.503906 46.398438 -7.5 50.234375 -7.5 C 51.191406 -7.5 52.097656 -7.769531 52.953125 -8.3125 C 53.804688 -8.863281 54.660156 -9.789062 55.515625 -11.09375 C 56.367188 -12.394531 57.257812 -14.070312 58.1875 -16.125 C 59.113281 -18.175781 60.160156 -20.742188 61.328125 -23.828125 C 61.597656 -24.378906 62.054688 -24.875 62.703125 -25.3125 C 63.359375 -25.757812 64.097656 -25.984375 64.921875 -25.984375 C 66.085938 -25.984375 67.0625 -25.585938 67.84375 -24.796875 C 68.632812 -24.015625 69.03125 -23.039062 69.03125 -21.875 C 69.03125 -21.46875 68.960938 -21.054688 68.828125 -20.640625 C 66.222656 -13.796875 63.53125 -8.554688 60.75 -4.921875 C 57.976562 -1.296875 54.472656 0.515625 50.234375 0.515625 C 46.734375 0.515625 44.109375 -0.234375 42.359375 -1.734375 C 40.617188 -3.242188 39.164062 -5.4375 38 -8.3125 C 37.039062 -6.738281 36.046875 -5.40625 35.015625 -4.3125 C 33.992188 -3.21875 32.898438 -2.3125 31.734375 -1.59375 C 30.578125 -0.875 29.257812 -0.34375 27.78125 0 C 26.3125 0.34375 24.617188 0.515625 22.703125 0.515625 Z M 23.3125 -7.1875 C 25.226562 -7.1875 26.941406 -7.90625 28.453125 -9.34375 C 29.960938 -10.78125 31.242188 -12.578125 32.296875 -14.734375 C 33.359375 -16.890625 34.25 -19.203125 34.96875 -21.671875 C 35.6875 -24.140625 36.21875 -26.363281 36.5625 -28.34375 L 37.390625 -32.96875 C 37.460938 -33.445312 37.515625 -33.859375 37.546875 -34.203125 C 37.578125 -34.546875 37.59375 -34.785156 37.59375 -34.921875 C 37.59375 -35.054688 37.488281 -35.394531 37.28125 -35.9375 C 37.082031 -36.488281 36.707031 -37.070312 36.15625 -37.6875 C 35.601562 -38.3125 34.863281 -38.863281 33.9375 -39.34375 C 33.019531 -39.820312 31.84375 -40.0625 30.40625 -40.0625 C 28.351562 -40.0625 26.414062 -39.492188 24.59375 -38.359375 C 22.78125 -37.234375 21.222656 -35.726562 19.921875 -33.84375 C 18.617188 -31.957031 17.59375 -29.726562 16.84375 -27.15625 C 16.09375 -24.59375 15.71875 -21.875 15.71875 -19 C 15.71875 -15.570312 16.347656 -12.742188 17.609375 -10.515625 C 18.878906 -8.296875 20.78125 -7.1875 23.3125 -7.1875 Z M 23.3125 -7.1875 "/></g></g></g><g fill="#000000" fill-opacity="1"><g transform="translate(154.290166, 167.510564)"><g><path d="M 31.4375 0.515625 C 27.53125 0.515625 24.101562 -0.0976562 21.15625 -1.328125 C 18.21875 -2.566406 15.753906 -4.265625 13.765625 -6.421875 C 11.773438 -8.578125 10.265625 -11.09375 9.234375 -13.96875 C 8.210938 -16.84375 7.703125 -19.925781 7.703125 -23.21875 C 7.703125 -26.570312 8.234375 -29.738281 9.296875 -32.71875 C 10.359375 -35.695312 11.8125 -38.265625 13.65625 -40.421875 C 15.507812 -42.578125 17.734375 -44.285156 20.328125 -45.546875 C 22.929688 -46.816406 25.773438 -47.453125 28.859375 -47.453125 C 33.171875 -47.453125 36.578125 -46.285156 39.078125 -43.953125 C 41.578125 -41.628906 42.828125 -38.6875 42.828125 -35.125 C 42.828125 -32.519531 42.242188 -30.296875 41.078125 -28.453125 C 39.921875 -26.609375 38.625 -25.6875 37.1875 -25.6875 C 36.15625 -25.6875 35.210938 -26.078125 34.359375 -26.859375 C 33.503906 -27.648438 33.078125 -28.625 33.078125 -29.78125 C 33.078125 -30.332031 33.160156 -30.78125 33.328125 -31.125 C 33.503906 -31.46875 33.675781 -31.8125 33.84375 -32.15625 C 34.019531 -32.5 34.191406 -32.890625 34.359375 -33.328125 C 34.523438 -33.773438 34.609375 -34.410156 34.609375 -35.234375 C 34.609375 -36.804688 34.039062 -38.054688 32.90625 -38.984375 C 31.78125 -39.910156 30.226562 -40.375 28.25 -40.375 C 26.257812 -40.375 24.492188 -39.859375 22.953125 -38.828125 C 21.410156 -37.796875 20.125 -36.457031 19.09375 -34.8125 C 18.070312 -33.175781 17.285156 -31.363281 16.734375 -29.375 C 16.191406 -27.394531 15.921875 -25.441406 15.921875 -23.515625 C 15.921875 -20.984375 16.3125 -18.722656 17.09375 -16.734375 C 17.882812 -14.753906 18.960938 -13.097656 20.328125 -11.765625 C 21.703125 -10.429688 23.347656 -9.421875 25.265625 -8.734375 C 27.179688 -8.046875 29.238281 -7.703125 31.4375 -7.703125 C 37.25 -7.703125 42.085938 -9.125 45.953125 -11.96875 C 49.828125 -14.8125 52.757812 -18.832031 54.75 -24.03125 C 54.957031 -24.644531 55.398438 -25.191406 56.078125 -25.671875 C 56.765625 -26.160156 57.554688 -26.40625 58.453125 -26.40625 C 59.609375 -26.40625 60.582031 -26.007812 61.375 -25.21875 C 62.164062 -24.425781 62.5625 -23.453125 62.5625 -22.296875 C 62.5625 -22.148438 62.523438 -21.890625 62.453125 -21.515625 C 62.378906 -21.140625 62.3125 -20.882812 62.25 -20.75 C 61.082031 -17.664062 59.539062 -14.835938 57.625 -12.265625 C 55.707031 -9.703125 53.445312 -7.460938 50.84375 -5.546875 C 48.238281 -3.628906 45.3125 -2.140625 42.0625 -1.078125 C 38.8125 -0.015625 35.269531 0.515625 31.4375 0.515625 Z M 31.4375 0.515625 "/></g></g></g><g fill="#000000" fill-opacity="1"><g transform="translate(201.434255, 167.510564)"><g><path d="M 43.453125 0.71875 C 40.441406 0.71875 37.992188 0.140625 36.109375 -1.015625 C 34.222656 -2.179688 32.613281 -3.6875 31.28125 -5.53125 C 29.945312 -7.382812 28.726562 -9.457031 27.625 -11.75 C 26.53125 -14.050781 25.265625 -16.332031 23.828125 -18.59375 C 21.703125 -15.164062 20.003906 -12.082031 18.734375 -9.34375 C 17.472656 -6.601562 16.46875 -4.242188 15.71875 -2.265625 C 14.96875 -0.410156 13.664062 0.515625 11.8125 0.515625 C 10.644531 0.515625 9.664062 0.125 8.875 -0.65625 C 8.09375 -1.445312 7.703125 -2.425781 7.703125 -3.59375 L 7.703125 -72.9375 C 7.703125 -74.09375 8.09375 -75.066406 8.875 -75.859375 C 9.664062 -76.648438 10.644531 -77.046875 11.8125 -77.046875 C 12.976562 -77.046875 13.953125 -76.648438 14.734375 -75.859375 C 15.523438 -75.066406 15.921875 -74.09375 15.921875 -72.9375 L 15.921875 -18.28125 C 20.441406 -27.457031 24.859375 -34.597656 29.171875 -39.703125 C 33.484375 -44.804688 38.035156 -47.523438 42.828125 -47.859375 C 43.859375 -47.859375 44.800781 -47.460938 45.65625 -46.671875 C 46.507812 -45.890625 46.9375 -44.921875 46.9375 -43.765625 C 46.9375 -42.796875 46.660156 -41.96875 46.109375 -41.28125 C 45.566406 -40.601562 44.953125 -40.128906 44.265625 -39.859375 C 43.304688 -39.648438 42.363281 -39.320312 41.4375 -38.875 C 40.519531 -38.4375 39.476562 -37.71875 38.3125 -36.71875 C 37.144531 -35.726562 35.804688 -34.34375 34.296875 -32.5625 C 32.796875 -30.78125 31.019531 -28.453125 28.96875 -25.578125 C 29.507812 -24.890625 30.296875 -23.671875 31.328125 -21.921875 C 32.359375 -20.179688 33.488281 -18.046875 34.71875 -15.515625 C 36.15625 -12.429688 37.523438 -10.253906 38.828125 -8.984375 C 40.128906 -7.722656 41.671875 -7.09375 43.453125 -7.09375 C 44.753906 -7.09375 45.984375 -7.535156 47.140625 -8.421875 C 48.304688 -9.316406 49.398438 -10.515625 50.421875 -12.015625 C 51.453125 -13.523438 52.429688 -15.304688 53.359375 -17.359375 C 54.285156 -19.410156 55.160156 -21.566406 55.984375 -23.828125 C 56.191406 -24.304688 56.566406 -24.800781 57.109375 -25.3125 C 57.660156 -25.832031 58.515625 -26.09375 59.671875 -26.09375 C 60.773438 -26.09375 61.734375 -25.695312 62.546875 -24.90625 C 63.367188 -24.125 63.78125 -23.148438 63.78125 -21.984375 C 63.78125 -21.847656 63.742188 -21.570312 63.671875 -21.15625 C 63.609375 -20.75 63.546875 -20.476562 63.484375 -20.34375 C 62.390625 -17.46875 61.222656 -14.742188 59.984375 -12.171875 C 58.753906 -9.597656 57.347656 -7.367188 55.765625 -5.484375 C 54.191406 -3.609375 52.394531 -2.101562 50.375 -0.96875 C 48.363281 0.15625 46.054688 0.71875 43.453125 0.71875 Z M 43.453125 0.71875 "/></g></g></g><g fill="#000000" fill-opacity="1"><g transform="translate(249.810847, 167.510564)"><g><path d="M 31.53125 0.515625 C 27.695312 0.515625 24.304688 -0.0820312 21.359375 -1.28125 C 18.421875 -2.476562 15.941406 -4.117188 13.921875 -6.203125 C 11.898438 -8.296875 10.359375 -10.78125 9.296875 -13.65625 C 8.234375 -16.53125 7.703125 -19.648438 7.703125 -23.015625 C 7.703125 -26.367188 8.195312 -29.535156 9.1875 -32.515625 C 10.1875 -35.492188 11.625 -38.113281 13.5 -40.375 C 15.382812 -42.632812 17.679688 -44.429688 20.390625 -45.765625 C 23.097656 -47.097656 26.128906 -47.765625 29.484375 -47.765625 C 34.003906 -47.765625 37.410156 -46.632812 39.703125 -44.375 C 41.992188 -42.113281 43.140625 -39.441406 43.140625 -36.359375 C 43.140625 -30.472656 40.863281 -26.003906 36.3125 -22.953125 C 31.757812 -19.910156 25.238281 -18.25 16.75 -17.96875 C 17.289062 -14.476562 18.894531 -11.894531 21.5625 -10.21875 C 24.238281 -8.539062 27.53125 -7.703125 31.4375 -7.703125 C 36.976562 -7.703125 41.628906 -9.003906 45.390625 -11.609375 C 49.160156 -14.210938 52.144531 -18.421875 54.34375 -24.234375 C 54.539062 -24.859375 55 -25.410156 55.71875 -25.890625 C 56.4375 -26.367188 57.207031 -26.609375 58.03125 -26.609375 C 59.269531 -26.609375 60.25 -26.109375 60.96875 -25.109375 C 61.6875 -24.117188 62.046875 -23.144531 62.046875 -22.1875 C 62.046875 -21.84375 61.976562 -21.46875 61.84375 -21.0625 C 60.675781 -18.113281 59.253906 -15.335938 57.578125 -12.734375 C 55.898438 -10.128906 53.859375 -7.851562 51.453125 -5.90625 C 49.054688 -3.957031 46.210938 -2.398438 42.921875 -1.234375 C 39.640625 -0.0664062 35.84375 0.515625 31.53125 0.515625 Z M 16.234375 -25.890625 C 22.390625 -25.890625 27.039062 -26.863281 30.1875 -28.8125 C 33.34375 -30.757812 34.921875 -33.101562 34.921875 -35.84375 C 34.921875 -37.21875 34.492188 -38.398438 33.640625 -39.390625 C 32.785156 -40.378906 31.398438 -40.875 29.484375 -40.875 C 27.492188 -40.875 25.742188 -40.476562 24.234375 -39.6875 C 22.734375 -38.90625 21.453125 -37.828125 20.390625 -36.453125 C 19.328125 -35.085938 18.4375 -33.5 17.71875 -31.6875 C 17 -29.875 16.503906 -27.941406 16.234375 -25.890625 Z M 16.234375 -25.890625 "/></g></g></g><g fill="#000000" fill-opacity="1"><g transform="translate(296.441378, 167.510564)"><g><path d="M 39.34375 0.609375 C 35.4375 0.609375 32.472656 -0.550781 30.453125 -2.875 C 28.429688 -5.207031 27.421875 -8.390625 27.421875 -12.421875 C 27.421875 -14.679688 27.710938 -16.71875 28.296875 -18.53125 C 28.878906 -20.351562 29.507812 -22.082031 30.1875 -23.71875 C 30.875 -25.363281 31.507812 -27.007812 32.09375 -28.65625 C 32.675781 -30.300781 32.96875 -32.082031 32.96875 -34 C 32.96875 -35.164062 32.609375 -36.125 31.890625 -36.875 C 31.171875 -37.625 30.28125 -38.253906 29.21875 -38.765625 C 28.15625 -39.285156 26.988281 -39.695312 25.71875 -40 C 24.457031 -40.3125 23.316406 -40.640625 22.296875 -40.984375 C 21.742188 -38.316406 20.898438 -35.320312 19.765625 -32 C 18.640625 -28.675781 17.1875 -25.0625 15.40625 -21.15625 C 15.0625 -20.476562 14.546875 -19.847656 13.859375 -19.265625 C 13.179688 -18.679688 12.394531 -18.390625 11.5 -18.390625 C 10.34375 -18.390625 9.367188 -18.800781 8.578125 -19.625 C 7.785156 -20.445312 7.390625 -21.40625 7.390625 -22.5 C 7.390625 -22.632812 7.40625 -22.875 7.4375 -23.21875 C 7.476562 -23.5625 7.566406 -23.832031 7.703125 -24.03125 L 8.53125 -25.78125 C 9.144531 -27.15625 9.773438 -28.628906 10.421875 -30.203125 C 11.078125 -31.773438 11.675781 -33.363281 12.21875 -34.96875 C 12.769531 -36.582031 13.234375 -38.140625 13.609375 -39.640625 C 13.984375 -41.148438 14.273438 -42.523438 14.484375 -43.765625 C 13.523438 -44.515625 12.925781 -45.316406 12.6875 -46.171875 C 12.445312 -47.023438 12.328125 -47.929688 12.328125 -48.890625 C 12.328125 -50.128906 12.753906 -51.226562 13.609375 -52.1875 C 14.460938 -53.144531 15.710938 -53.625 17.359375 -53.625 C 18.316406 -53.625 19.359375 -53.296875 20.484375 -52.640625 C 21.617188 -51.992188 22.359375 -50.675781 22.703125 -48.6875 C 24.753906 -48.070312 26.859375 -47.472656 29.015625 -46.890625 C 31.171875 -46.304688 33.15625 -45.535156 34.96875 -44.578125 C 36.789062 -43.617188 38.28125 -42.316406 39.4375 -40.671875 C 40.601562 -39.035156 41.1875 -36.8125 41.1875 -34 C 41.1875 -32.144531 40.894531 -30.34375 40.3125 -28.59375 C 39.726562 -26.851562 39.09375 -25.128906 38.40625 -23.421875 C 37.726562 -21.710938 37.097656 -19.96875 36.515625 -18.1875 C 35.929688 -16.40625 35.640625 -14.554688 35.640625 -12.640625 C 35.640625 -11.335938 36.015625 -10.132812 36.765625 -9.03125 C 37.523438 -7.9375 38.691406 -7.390625 40.265625 -7.390625 C 41.703125 -7.390625 43.050781 -7.867188 44.3125 -8.828125 C 45.582031 -9.785156 46.75 -11.019531 47.8125 -12.53125 C 48.875 -14.039062 49.832031 -15.703125 50.6875 -17.515625 C 51.539062 -19.328125 52.28125 -21.085938 52.90625 -22.796875 C 53.238281 -23.753906 53.726562 -24.609375 54.375 -25.359375 C 55.03125 -26.117188 55.976562 -26.5 57.21875 -26.5 C 58.375 -26.5 59.347656 -26.101562 60.140625 -25.3125 C 60.929688 -24.53125 61.328125 -23.554688 61.328125 -22.390625 C 61.328125 -22.253906 61.304688 -22.03125 61.265625 -21.71875 C 61.234375 -21.414062 61.1875 -21.195312 61.125 -21.0625 L 60.5 -19.40625 C 59.613281 -17.082031 58.5 -14.738281 57.15625 -12.375 C 55.820312 -10.007812 54.28125 -7.867188 52.53125 -5.953125 C 50.789062 -4.035156 48.804688 -2.460938 46.578125 -1.234375 C 44.359375 -0.00390625 41.945312 0.609375 39.34375 0.609375 Z M 39.34375 0.609375 "/></g></g></g><g clip-path="url(#id1)"><path fill="#000000" d="M 309.007812 73.636719 L 313.636719 81.679688 L 318.996094 81.675781 C 319.230469 81.675781 319.972656 81.1875 320.96875 79.882812 C 321.832031 78.753906 322.253906 77.859375 322.328125 77.542969 C 320.109375 74.765625 318.59375 70.433594 320.140625 66.882812 L 325.996094 49.664062 C 326.066406 49.464844 326.238281 49.320312 326.445312 49.292969 L 352.117188 45.773438 L 353.011719 42.425781 C 353.074219 42.183594 353.296875 42.011719 353.546875 42.011719 L 356.070312 42.011719 L 356.070312 34.058594 L 323.308594 34.058594 L 320.773438 39.804688 C 320.683594 40.007812 320.484375 40.140625 320.265625 40.140625 L 313.902344 40.140625 C 313.742188 40.140625 313.589844 40.066406 313.480469 39.945312 C 313.375 39.820312 313.332031 39.65625 313.355469 39.496094 L 314.3125 33.296875 L 305.320312 36.007812 L 305.320312 45.515625 C 313.039062 47.375 314.332031 52.996094 314.382812 53.238281 C 314.402344 53.324219 314.402344 53.414062 314.378906 53.5 Z M 313.316406 82.796875 C 313.117188 82.796875 312.933594 82.6875 312.835938 82.515625 L 307.929688 73.992188 C 307.855469 73.867188 307.835938 73.714844 307.871094 73.570312 L 313.265625 53.351562 C 313.039062 52.527344 311.488281 47.980469 304.644531 46.503906 C 304.390625 46.449219 304.207031 46.222656 304.207031 45.957031 L 304.207031 35.59375 C 304.207031 35.347656 304.367188 35.132812 304.601562 35.058594 L 314.835938 31.972656 C 315.019531 31.914062 315.21875 31.957031 315.363281 32.085938 C 315.507812 32.210938 315.574219 32.402344 315.546875 32.589844 L 314.554688 39.023438 L 319.902344 39.023438 L 322.4375 33.277344 C 322.527344 33.074219 322.726562 32.945312 322.945312 32.945312 L 356.628906 32.945312 C 356.9375 32.945312 357.183594 33.191406 357.183594 33.5 L 357.183594 42.570312 C 357.183594 42.878906 356.9375 43.128906 356.628906 43.128906 L 353.976562 43.128906 L 353.09375 46.421875 C 353.039062 46.640625 352.855469 46.800781 352.632812 46.832031 L 326.9375 50.351562 L 321.1875 67.265625 C 321.183594 67.28125 321.175781 67.296875 321.167969 67.3125 C 319.78125 70.464844 321.289062 74.515625 323.28125 76.949219 C 323.613281 77.359375 323.402344 77.960938 323.148438 78.496094 C 322.574219 79.71875 320.496094 82.789062 318.996094 82.789062 Z M 313.316406 82.796875 " fill-opacity="1" fill-rule="evenodd"/></g><path fill="#000000" d="M 323.035156 65.941406 C 322.457031 65.941406 321.847656 65.90625 321.214844 65.839844 C 320.910156 65.804688 320.6875 65.53125 320.71875 65.226562 C 320.753906 64.917969 321.027344 64.695312 321.332031 64.730469 C 326.902344 65.328125 330.214844 62.882812 331.429688 61.738281 C 328.761719 60.496094 326.980469 58.128906 326.246094 54.84375 C 325.652344 52.175781 325.957031 49.867188 325.972656 49.769531 C 326.015625 49.464844 326.292969 49.253906 326.597656 49.292969 C 326.902344 49.332031 327.117188 49.617188 327.074219 49.921875 C 327.070312 49.957031 326.785156 52.164062 327.339844 54.628906 C 328.066406 57.863281 329.832031 60.011719 332.585938 61.011719 C 332.753906 61.074219 332.882812 61.210938 332.929688 61.386719 C 332.980469 61.558594 332.941406 61.746094 332.828125 61.886719 C 332.683594 62.066406 329.5 65.941406 323.035156 65.941406 Z M 323.035156 65.941406 " fill-opacity="1" fill-rule="evenodd"/><path fill="#000000" d="M 311.109375 39.539062 L 307.535156 39.539062 C 307.226562 39.539062 306.976562 39.289062 306.976562 38.980469 C 306.976562 38.667969 307.226562 38.421875 307.535156 38.421875 L 311.109375 38.421875 C 311.417969 38.421875 311.667969 38.671875 311.667969 38.980469 C 311.667969 39.289062 311.417969 39.539062 311.109375 39.539062 Z M 311.109375 39.539062 " fill-opacity="1" fill-rule="evenodd"/><path fill="#000000" d="M 311.109375 42.925781 L 307.535156 42.925781 C 307.226562 42.925781 306.976562 42.675781 306.976562 42.367188 C 306.976562 42.058594 307.226562 41.808594 307.535156 41.808594 L 311.109375 41.808594 C 311.417969 41.808594 311.667969 42.058594 311.667969 42.367188 C 311.667969 42.675781 311.417969 42.925781 311.109375 42.925781 Z M 311.109375 42.925781 " fill-opacity="1" fill-rule="evenodd"/><path fill="#000000" d="M 360.492188 41.804688 L 356.628906 41.804688 C 356.320312 41.804688 356.070312 41.554688 356.070312 41.246094 C 356.070312 40.941406 356.320312 40.691406 356.628906 40.691406 L 359.933594 40.691406 L 359.933594 35.429688 L 356.628906 35.429688 C 356.320312 35.429688 356.070312 35.179688 356.070312 34.871094 C 356.070312 34.5625 356.320312 34.3125 356.628906 34.3125 L 360.492188 34.3125 C 360.796875 34.3125 361.046875 34.5625 361.046875 34.871094 L 361.046875 41.246094 C 361.046875 41.554688 360.796875 41.804688 360.492188 41.804688 Z M 360.492188 41.804688 " fill-opacity="1" fill-rule="evenodd"/><g clip-path="url(#id2)"><path fill="#000000" d="M 360.492188 40.984375 C 360.261719 40.984375 360.050781 40.84375 359.96875 40.617188 C 359.863281 40.324219 360.015625 40.007812 360.300781 39.902344 L 365.425781 38.058594 L 360.300781 36.214844 C 360.015625 36.113281 359.863281 35.792969 359.96875 35.503906 C 360.070312 35.214844 360.390625 35.0625 360.679688 35.167969 L 367.261719 37.535156 C 367.484375 37.613281 367.628906 37.824219 367.628906 38.058594 C 367.628906 38.296875 367.480469 38.503906 367.261719 38.585938 L 360.679688 40.953125 C 360.617188 40.972656 360.554688 40.984375 360.492188 40.984375 Z M 360.492188 40.984375 " fill-opacity="1" fill-rule="evenodd"/></g><path fill="#000000" d="M 347.191406 39.292969 C 347.152344 39.292969 347.109375 39.289062 347.070312 39.277344 C 346.769531 39.210938 346.582031 38.914062 346.648438 38.613281 L 347.808594 33.378906 C 347.875 33.078125 348.167969 32.890625 348.472656 32.957031 C 348.769531 33.023438 348.960938 33.324219 348.890625 33.625 L 347.734375 38.855469 C 347.675781 39.113281 347.445312 39.292969 347.191406 39.292969 Z M 347.191406 39.292969 " fill-opacity="1" fill-rule="evenodd"/><path fill="#000000" d="M 343.460938 39.292969 C 343.421875 39.292969 343.382812 39.289062 343.339844 39.277344 C 343.039062 39.210938 342.851562 38.914062 342.917969 38.613281 L 344.078125 33.378906 C 344.144531 33.078125 344.441406 32.890625 344.738281 32.957031 C 345.039062 33.023438 345.230469 33.324219 345.164062 33.625 L 344.003906 38.855469 C 343.945312 39.113281 343.714844 39.292969 343.460938 39.292969 Z M 343.460938 39.292969 " fill-opacity="1" fill-rule="evenodd"/><path fill="#000000" d="M 339.730469 39.292969 C 339.691406 39.292969 339.652344 39.289062 339.609375 39.277344 C 339.308594 39.210938 339.121094 38.914062 339.1875 38.613281 L 340.347656 33.378906 C 340.414062 33.078125 340.710938 32.890625 341.011719 32.957031 C 341.3125 33.023438 341.5 33.324219 341.433594 33.625 L 340.273438 38.855469 C 340.214844 39.113281 339.988281 39.292969 339.730469 39.292969 Z M 339.730469 39.292969 " fill-opacity="1" fill-rule="evenodd"/><path fill="#000000" d="M 336 39.292969 C 335.960938 39.292969 335.921875 39.289062 335.878906 39.277344 C 335.582031 39.210938 335.390625 38.914062 335.457031 38.613281 L 336.617188 33.378906 C 336.683594 33.078125 336.980469 32.890625 337.28125 32.957031 C 337.582031 33.023438 337.769531 33.324219 337.703125 33.625 L 336.546875 38.855469 C 336.488281 39.113281 336.257812 39.292969 336 39.292969 Z M 336 39.292969 " fill-opacity="1" fill-rule="evenodd"/><path fill="#000000" d="M 332.273438 39.292969 C 332.230469 39.292969 332.191406 39.289062 332.152344 39.277344 C 331.851562 39.210938 331.660156 38.914062 331.726562 38.613281 L 332.886719 33.378906 C 332.953125 33.078125 333.25 32.890625 333.550781 32.957031 C 333.851562 33.023438 334.039062 33.324219 333.972656 33.625 L 332.8125 38.855469 C 332.757812 39.113281 332.527344 39.292969 332.273438 39.292969 Z M 332.273438 39.292969 " fill-opacity="1" fill-rule="evenodd"/><path fill="#000000" d="M 328.542969 39.292969 C 328.5 39.292969 328.460938 39.289062 328.421875 39.277344 C 328.121094 39.210938 327.933594 38.914062 328 38.613281 L 329.15625 33.378906 C 329.222656 33.078125 329.519531 32.890625 329.820312 32.957031 C 330.121094 33.023438 330.3125 33.324219 330.242188 33.625 L 329.085938 38.855469 C 329.027344 39.113281 328.796875 39.292969 328.542969 39.292969 Z M 328.542969 39.292969 " fill-opacity="1" fill-rule="evenodd"/><path fill="#000000" d="M 321.507812 37.132812 L 314.367188 37.132812 C 314.058594 37.132812 313.8125 36.882812 313.8125 36.574219 C 313.8125 36.265625 314.058594 36.015625 314.367188 36.015625 L 321.507812 36.015625 C 321.816406 36.015625 322.066406 36.265625 322.066406 36.574219 C 322.066406 36.882812 321.816406 37.132812 321.507812 37.132812 Z M 321.507812 37.132812 " fill-opacity="1" fill-rule="evenodd"/><path fill="#000000" d="M 315.917969 74.191406 C 314.980469 74.191406 314.214844 74.957031 314.214844 75.894531 C 314.214844 76.835938 314.980469 77.601562 315.917969 77.601562 C 316.855469 77.601562 317.617188 76.835938 317.617188 75.894531 C 317.617188 74.957031 316.851562 74.191406 315.917969 74.191406 Z M 315.917969 78.714844 C 314.363281 78.714844 313.101562 77.449219 313.101562 75.894531 C 313.101562 74.339844 314.363281 73.074219 315.917969 73.074219 C 317.464844 73.074219 318.726562 74.339844 318.726562 75.894531 C 318.726562 77.449219 317.464844 78.714844 315.917969 78.714844 Z M 315.917969 78.714844 " fill-opacity="1" fill-rule="evenodd"/><path fill="#22d3ee" d="M 313.101562 75.894531 C 313.101562 74.339844 314.363281 73.074219 315.917969 73.074219 C 317.464844 73.074219 318.726562 74.339844 318.726562 75.894531 C 318.726562 77.449219 317.464844 78.714844 315.917969 78.714844 C 314.363281 78.714844 313.101562 77.449219 313.101562 75.894531 Z M 320.753906 65.082031 L 325.992188 49.679688 C 325.992188 49.675781 325.996094 49.671875 325.996094 49.664062 C 326.003906 49.640625 326.015625 49.617188 326.027344 49.59375 C 326.109375 49.429688 326.265625 49.316406 326.445312 49.292969 L 352.117188 45.777344 L 353.011719 42.425781 C 353.074219 42.183594 353.296875 42.011719 353.546875 42.011719 L 356.070312 42.011719 L 356.070312 41.261719 C 356.070312 41.257812 356.070312 41.253906 356.070312 41.246094 C 356.070312 41.242188 356.070312 41.238281 356.070312 41.234375 L 356.070312 34.886719 C 356.070312 34.878906 356.070312 34.875 356.070312 34.871094 C 356.070312 34.867188 356.070312 34.859375 356.070312 34.855469 L 356.070312 34.058594 L 348.796875 34.058594 L 347.734375 38.855469 C 347.675781 39.113281 347.445312 39.292969 347.191406 39.292969 C 347.152344 39.292969 347.109375 39.289062 347.070312 39.277344 C 346.769531 39.210938 346.582031 38.914062 346.648438 38.613281 L 347.65625 34.058594 L 345.066406 34.058594 L 344.003906 38.855469 C 343.945312 39.113281 343.714844 39.292969 343.460938 39.292969 C 343.421875 39.292969 343.382812 39.289062 343.339844 39.277344 C 343.039062 39.210938 342.851562 38.914062 342.917969 38.613281 L 343.925781 34.058594 L 341.335938 34.058594 L 340.273438 38.855469 C 340.214844 39.113281 339.988281 39.292969 339.730469 39.292969 C 339.691406 39.292969 339.652344 39.289062 339.609375 39.277344 C 339.308594 39.210938 339.121094 38.914062 339.1875 38.613281 L 340.195312 34.058594 L 337.605469 34.058594 L 336.546875 38.855469 C 336.488281 39.113281 336.257812 39.292969 336 39.292969 C 335.960938 39.292969 335.921875 39.289062 335.878906 39.277344 C 335.582031 39.210938 335.390625 38.914062 335.457031 38.613281 L 336.46875 34.058594 L 333.875 34.058594 L 332.8125 38.855469 C 332.757812 39.113281 332.527344 39.292969 332.273438 39.292969 C 332.230469 39.292969 332.191406 39.289062 332.152344 39.277344 C 331.851562 39.210938 331.660156 38.914062 331.726562 38.613281 L 332.734375 34.058594 L 330.148438 34.058594 L 329.085938 38.855469 C 329.027344 39.113281 328.796875 39.292969 328.542969 39.292969 C 328.5 39.292969 328.460938 39.289062 328.421875 39.277344 C 328.121094 39.210938 327.933594 38.914062 328 38.613281 L 329.007812 34.058594 L 323.308594 34.058594 L 320.773438 39.804688 C 320.683594 40.007812 320.484375 40.140625 320.265625 40.140625 L 313.902344 40.140625 C 313.742188 40.140625 313.589844 40.066406 313.480469 39.945312 C 313.375 39.820312 313.332031 39.65625 313.355469 39.496094 L 313.8125 36.53125 C 313.816406 36.5 313.820312 36.472656 313.824219 36.445312 L 314.3125 33.296875 L 305.320312 36.007812 L 305.320312 45.515625 C 313.039062 47.375 314.332031 52.996094 314.382812 53.238281 C 314.402344 53.324219 314.402344 53.414062 314.378906 53.5 L 309.007812 73.636719 L 313.636719 81.679688 L 318.996094 81.675781 C 319.230469 81.675781 319.972656 81.1875 320.96875 79.882812 C 321.832031 78.753906 322.253906 77.859375 322.328125 77.542969 C 320.109375 74.765625 318.59375 70.433594 320.140625 66.882812 L 320.742188 65.125 C 320.746094 65.109375 320.75 65.097656 320.753906 65.082031 Z M 311.667969 42.367188 C 311.667969 42.675781 311.417969 42.925781 311.109375 42.925781 L 307.535156 42.925781 C 307.226562 42.925781 306.976562 42.675781 306.976562 42.367188 C 306.976562 42.058594 307.226562 41.808594 307.535156 41.808594 L 311.109375 41.808594 C 311.417969 41.808594 311.667969 42.058594 311.667969 42.367188 Z M 311.109375 39.539062 L 307.535156 39.539062 C 307.226562 39.539062 306.976562 39.289062 306.976562 38.980469 C 306.976562 38.671875 307.226562 38.421875 307.535156 38.421875 L 311.109375 38.421875 C 311.417969 38.421875 311.667969 38.671875 311.667969 38.980469 C 311.667969 39.289062 311.417969 39.539062 311.109375 39.539062 Z M 311.109375 39.539062 " fill-opacity="1" fill-rule="evenodd"/><path fill="#a3a3a3" d="M 361.046875 39.632812 L 365.425781 38.058594 L 361.046875 36.484375 Z M 361.046875 39.632812 " fill-opacity="1" fill-rule="evenodd"/><path fill="#0891b2" d="M 359.933594 40.691406 L 359.933594 35.429688 L 357.183594 35.429688 L 357.183594 40.691406 Z M 359.933594 40.691406 " fill-opacity="1" fill-rule="evenodd"/><path fill="#0891b2" d="M 317.617188 75.894531 C 317.617188 74.957031 316.851562 74.191406 315.917969 74.191406 C 314.980469 74.191406 314.214844 74.957031 314.214844 75.894531 C 314.214844 76.835938 314.980469 77.601562 315.917969 77.601562 C 316.855469 77.601562 317.617188 76.835938 317.617188 75.894531 Z M 317.617188 75.894531 " fill-opacity="1" fill-rule="evenodd"/><path fill="#a3a3a3" d="M 322.027344 64.789062 C 327.179688 65.121094 330.265625 62.835938 331.429688 61.738281 C 328.761719 60.496094 326.980469 58.128906 326.246094 54.84375 C 326.117188 54.265625 326.03125 53.707031 325.976562 53.179688 Z M 322.027344 64.789062 " fill-opacity="1" fill-rule="evenodd"/><g clip-path="url(#id3)"><path fill="#a3a3a3" d="M 51.589844 157.082031 C 51.859375 156.8125 51.859375 156.367188 51.589844 156.09375 C 51.320312 155.824219 50.878906 155.824219 50.609375 156.09375 L 44.734375 162.019531 C 44.464844 162.289062 44.464844 162.734375 44.734375 163.003906 C 45.003906 163.277344 45.441406 163.277344 45.710938 163.003906 Z M 56.488281 162.015625 C 56.757812 161.746094 56.757812 161.300781 56.488281 161.03125 C 56.21875 160.757812 55.777344 160.757812 55.507812 161.03125 L 49.628906 166.953125 C 49.359375 167.222656 49.359375 167.667969 49.628906 167.9375 C 49.898438 168.210938 50.339844 168.210938 50.609375 167.9375 Z M 56.488281 162.015625 " fill-opacity="1" fill-rule="nonzero"/></g><g clip-path="url(#id4)"><path fill="#000000" d="M 66.925781 143.308594 C 66.925781 146.773438 65.152344 149.296875 63.765625 150.742188 C 64.386719 151.808594 64.253906 153.203125 63.34375 154.121094 L 62.582031 154.890625 C 62.824219 155.820312 62.597656 156.847656 61.875 157.578125 L 58.445312 161.03125 C 58.984375 161.574219 58.984375 162.460938 58.445312 163.003906 C 57.90625 163.550781 57.027344 163.550781 56.488281 163.003906 L 54.53125 161.03125 L 54.527344 161.03125 L 51.589844 158.070312 L 49.628906 156.097656 C 49.089844 155.550781 49.089844 154.667969 49.628906 154.125 C 50.171875 153.578125 51.046875 153.578125 51.589844 154.125 L 55.019531 150.667969 C 55.742188 149.941406 56.761719 149.710938 57.683594 149.957031 L 58.445312 149.1875 C 59.359375 148.269531 60.75 148.132812 61.8125 148.769531 C 62.835938 147.6875 64.15625 145.820312 64.15625 143.308594 Z M 66.925781 143.308594 " fill-opacity="1" fill-rule="nonzero"/></g><g clip-path="url(#id5)"><path fill="#000000" d="M 214.390625 42.648438 L 239.742188 42.648438 L 239.742188 51.625 L 214.390625 51.625 Z M 214.390625 42.648438 " fill-opacity="1" fill-rule="nonzero"/></g></svg>